<svg width="260" height="42" viewBox="0 0 260 42" fill="none" xmlns="http://www.w3.org/2000/svg">
<g clip-path="url(#clip0_4426_285)">
<path fill-rule="evenodd" clip-rule="evenodd" d="M18.9024 0L34.598 9.13209L33.5431 10.9501L30.8926 9.41231L19.9525 3.04343V19.2948H17.8506V3.04026L6.85091 9.42168L6.84856 9.42304L4.22206 10.9559L3.1626 9.14052L5.7938 7.60494L18.9024 0Z" fill="#FD9701"/>
<path fill-rule="evenodd" clip-rule="evenodd" d="M0.0612827 17.6821L0 14.6399L2.10148 14.5975L2.16327 17.6647L2.11765 30.3351L16.1912 22.2098L17.2421 24.0301L3.16506 32.1575L14.1922 38.4933L14.1946 38.4946L16.8353 40.0028L15.7928 41.828L13.1498 40.3185L13.1474 40.3171L0.00697677 32.7671L0.0612827 17.6821Z" fill="#219CEA"/>
<path fill-rule="evenodd" clip-rule="evenodd" d="M37.7233 14.5704L37.7374 17.6168L37.7692 32.7718L24.6781 40.2672L22.074 41.8414L20.9866 40.0427L23.612 38.4556L34.6084 32.1594L20.535 24.0342L21.586 22.2139L35.6622 30.3407L35.6355 17.6239L35.6355 17.6212L35.6214 14.5802L37.7233 14.5704Z" fill="#59C959"/>
<path d="M60.9784 30.4006C59.6735 30.4006 58.506 30.1774 57.4759 29.731C56.4628 29.2847 55.6559 28.6321 55.055 27.7737C54.4712 26.9153 54.1707 25.8765 54.1536 24.6575H57.8364C57.8535 25.1897 57.9909 25.6704 58.2485 26.0997C58.506 26.529 58.8579 26.8723 59.3044 27.1299C59.768 27.3702 60.3174 27.4904 60.9527 27.4904C61.5021 27.4904 61.9742 27.4046 62.3691 27.2329C62.7812 27.044 63.0988 26.7865 63.322 26.4602C63.5452 26.134 63.6568 25.7477 63.6568 25.3013C63.6568 24.7862 63.5281 24.357 63.2705 24.0136C63.0301 23.6702 62.6867 23.3783 62.2404 23.138C61.8111 22.8976 61.3046 22.6829 60.7209 22.4941C60.1543 22.2881 59.5533 22.0735 58.9181 21.8503C57.493 21.3867 56.4027 20.7686 55.6473 19.996C54.909 19.2233 54.5399 18.2017 54.5399 16.9312C54.5399 15.8495 54.7974 14.9224 55.3125 14.1498C55.8447 13.3771 56.5745 12.7848 57.5016 12.3727C58.4288 11.9607 59.4847 11.7546 60.6694 11.7546C61.8884 11.7546 62.9528 11.9692 63.8629 12.3985C64.79 12.8105 65.5197 13.4114 66.052 14.2013C66.6014 14.9911 66.8847 15.9182 66.9019 16.9827H63.1933C63.1761 16.5879 63.0559 16.2186 62.8327 15.8753C62.6267 15.5147 62.3347 15.2314 61.9571 15.0254C61.5793 14.8022 61.1329 14.6906 60.6179 14.6906C60.1714 14.6734 59.7593 14.7421 59.3817 14.8966C59.0211 15.0512 58.7292 15.2829 58.506 15.592C58.3 15.8838 58.197 16.253 58.197 16.6994C58.197 17.1287 58.3 17.4892 58.506 17.7811C58.7292 18.0729 59.0297 18.3305 59.4074 18.5537C59.7851 18.7598 60.2315 18.9572 60.7466 19.1461C61.2617 19.3178 61.8197 19.4981 62.4206 19.6869C63.3134 19.996 64.1375 20.3651 64.8931 20.7943C65.6485 21.2064 66.2494 21.7472 66.6958 22.4168C67.1422 23.0865 67.3654 23.9706 67.3654 25.0695C67.3654 26.0139 67.1165 26.8895 66.6186 27.6964C66.1206 28.5034 65.3995 29.1559 64.4552 29.6538C63.5281 30.1516 62.3691 30.4006 60.9784 30.4006ZM74.6156 30.4006C73.5339 30.4006 72.6411 30.2289 71.9372 29.8855C71.2333 29.525 70.7095 29.0529 70.3662 28.4691C70.0399 27.8682 69.8768 27.2071 69.8768 26.486C69.8768 25.6962 70.0743 25.0008 70.4692 24.3999C70.8813 23.799 71.4908 23.3268 72.2977 22.9834C73.1219 22.6401 74.152 22.4684 75.3882 22.4684H78.6075C78.6075 21.8331 78.5217 21.3094 78.35 20.8973C78.1782 20.4681 77.9121 20.1505 77.5516 19.9444C77.191 19.7384 76.7102 19.6354 76.1094 19.6354C75.4569 19.6354 74.8989 19.7814 74.4353 20.0732C73.989 20.348 73.7142 20.7771 73.6112 21.3609H70.2374C70.3232 20.4338 70.6237 19.6354 71.1388 18.9658C71.6711 18.279 72.3664 17.7468 73.2249 17.369C74.1005 16.9913 75.0706 16.8024 76.1351 16.8024C77.3541 16.8024 78.41 17.0085 79.3029 17.4205C80.1957 17.8326 80.8824 18.4249 81.3632 19.1976C81.844 19.9702 82.0843 20.9231 82.0843 22.0563V30.0916H79.1483L78.762 28.1085C78.5732 28.4519 78.35 28.7609 78.0924 29.0357C77.8349 29.3104 77.5344 29.5507 77.191 29.7568C76.8477 29.9628 76.4614 30.1173 76.0321 30.2204C75.6028 30.3406 75.1307 30.4006 74.6156 30.4006ZM75.4397 27.7222C75.8861 27.7222 76.2811 27.6449 76.6244 27.4904C76.985 27.3187 77.294 27.0955 77.5516 26.8208C77.8091 26.529 78.0066 26.2027 78.1439 25.8421C78.2985 25.4644 78.4015 25.061 78.453 24.6317V24.6059H75.8003C75.268 24.6059 74.8302 24.6747 74.4868 24.812C74.1606 24.9322 73.9202 25.1125 73.7657 25.3528C73.6112 25.5932 73.5339 25.8679 73.5339 26.177C73.5339 26.5203 73.6112 26.8036 73.7657 27.0268C73.9202 27.2501 74.1435 27.4217 74.4353 27.5419C74.7272 27.6621 75.062 27.7222 75.4397 27.7222ZM90.9163 36.0665C89.6801 36.0665 88.5985 35.912 87.6713 35.603C86.7442 35.3111 86.023 34.8561 85.508 34.238C85.0101 33.6371 84.7611 32.8902 84.7611 31.9974C84.7611 31.3965 84.9156 30.8299 85.2247 30.2976C85.5337 29.7653 85.9802 29.2846 86.5639 28.8554C87.1649 28.409 87.9117 28.0312 88.8045 27.7222L90.118 29.422C89.3282 29.6795 88.753 29.9971 88.3924 30.3749C88.0491 30.7697 87.8773 31.1905 87.8773 31.6368C87.8773 32.0317 88.0061 32.3665 88.2637 32.6412C88.5384 32.916 88.899 33.1134 89.3453 33.2336C89.8089 33.3709 90.324 33.4396 90.8906 33.4396C91.4399 33.4396 91.9127 33.3709 92.3072 33.2336C92.7193 33.0963 93.0366 32.8902 93.2601 32.6155C93.5002 32.3579 93.6207 32.0489 93.6207 31.6883C93.6207 31.2248 93.4579 30.847 93.1314 30.5552C92.8049 30.2633 92.1527 30.083 91.1741 30.0143C90.2982 29.9456 89.5171 29.8512 88.8302 29.731C88.1606 29.5937 87.5683 29.4392 87.0532 29.2675C86.5381 29.0786 86.1003 28.8726 85.7397 28.6493C85.3964 28.4261 85.1131 28.203 84.8899 27.9797V27.3874L87.6456 24.4257L90.1437 25.224L86.8987 28.4176L87.8773 26.7178C88.0663 26.8208 88.2465 26.9238 88.4182 27.0268C88.6071 27.1127 88.8389 27.1986 89.1135 27.2844C89.3883 27.3531 89.7488 27.4217 90.1952 27.4904C90.6417 27.5591 91.2081 27.6192 91.8952 27.6707C93.0284 27.7737 93.9555 27.9883 94.6766 28.3145C95.4152 28.6408 95.9561 29.0786 96.2991 29.628C96.6422 30.1603 96.8142 30.8213 96.8142 31.6111C96.8142 32.3837 96.5999 33.1048 96.1704 33.7744C95.7583 34.4612 95.1144 35.0106 94.2388 35.4227C93.3632 35.852 92.2557 36.0665 90.9163 36.0665ZM90.9163 26.2542C89.8347 26.2542 88.899 26.0482 88.1091 25.6361C87.3365 25.2068 86.7356 24.6403 86.3063 23.9363C85.8943 23.2152 85.6882 22.4168 85.6882 21.5412C85.6882 20.6656 85.8943 19.8757 86.3063 19.1718C86.7356 18.4507 87.3365 17.8756 88.1091 17.4463C88.899 17.017 89.8347 16.8024 90.9163 16.8024C92.0157 16.8024 92.9511 17.017 93.7237 17.4463C94.5138 17.8756 95.1144 18.4507 95.5265 19.1718C95.9386 19.8757 96.1446 20.6656 96.1446 21.5412C96.1446 22.4168 95.9386 23.2152 95.5265 23.9363C95.1144 24.6403 94.5138 25.2068 93.7237 25.6361C92.9511 26.0482 92.0157 26.2542 90.9163 26.2542ZM90.9163 23.6015C91.5861 23.6015 92.127 23.4298 92.539 23.0865C92.9511 22.7431 93.1571 22.2366 93.1571 21.567C93.1571 20.8973 92.9511 20.3908 92.539 20.0475C92.127 19.6869 91.5861 19.5066 90.9163 19.5066C90.2639 19.5066 89.7231 19.6869 89.2938 20.0475C88.8818 20.3908 88.6757 20.8973 88.6757 21.567C88.6757 22.2366 88.8818 22.7431 89.2938 23.0865C89.7231 23.4298 90.2639 23.6015 90.9163 23.6015ZM93.0799 19.5839L92.5133 17.1115H97.8444V19.1718L93.0799 19.5839ZM106.399 30.4006C105.094 30.4006 103.935 30.1259 102.923 29.5765C101.926 29.0099 101.146 28.2287 100.579 27.2329C100.029 26.2199 99.7548 25.0523 99.7548 23.7303C99.7548 22.3739 100.029 21.1806 100.579 20.1505C101.128 19.1031 101.901 18.2876 102.897 17.7038C103.909 17.1029 105.077 16.8024 106.399 16.8024C107.687 16.8024 108.811 17.0857 109.773 17.6523C110.734 18.2189 111.481 18.983 112.014 19.9444C112.545 20.9059 112.812 21.9962 112.812 23.2152V23.8076C112.812 24.0136 112.795 24.2282 112.761 24.4514H102.227V22.3396H109.31C109.258 21.4982 108.957 20.8373 108.408 20.3565C107.876 19.8757 107.206 19.6354 106.399 19.6354C105.815 19.6354 105.274 19.7727 104.777 20.0475C104.278 20.305 103.884 20.7085 103.592 21.2579C103.317 21.8073 103.18 22.5027 103.18 23.344V24.0909C103.18 24.7948 103.309 25.4129 103.566 25.9452C103.841 26.4602 104.219 26.8638 104.7 27.1556C105.18 27.4303 105.738 27.5677 106.374 27.5677C107.008 27.5677 107.533 27.4303 107.945 27.1556C108.373 26.8809 108.691 26.529 108.898 26.0997H112.452C112.211 26.9066 111.808 27.6364 111.241 28.2888C110.675 28.9412 109.979 29.4563 109.155 29.834C108.331 30.2118 107.412 30.4006 106.399 30.4006ZM121.746 30.0916V12.0637H128.082C129.353 12.0637 130.399 12.2697 131.224 12.6818C132.065 13.0766 132.692 13.6261 133.104 14.33C133.516 15.0168 133.722 15.7895 133.722 16.6479C133.722 17.5751 133.516 18.3477 133.104 18.9658C132.709 19.5839 132.186 20.056 131.533 20.3823C130.898 20.7085 130.219 20.9059 129.498 20.9746L129.859 20.7171C130.631 20.7343 131.344 20.9403 131.996 21.3352C132.649 21.73 133.164 22.2623 133.541 22.9319C133.937 23.6015 134.134 24.3484 134.134 25.1725C134.134 26.0825 133.911 26.9153 133.464 27.6707C133.018 28.409 132.357 29.0014 131.481 29.4477C130.623 29.877 129.559 30.0916 128.288 30.0916H121.746ZM123.909 28.2888H128.056C129.275 28.2888 130.219 28.0055 130.889 27.4389C131.576 26.8551 131.919 26.0482 131.919 25.018C131.919 24.005 131.568 23.198 130.863 22.5971C130.177 21.979 129.224 21.67 128.004 21.67H123.909V28.2888ZM123.909 19.9444H127.927C129.095 19.9444 129.979 19.6697 130.58 19.1203C131.198 18.5709 131.507 17.8241 131.507 16.8797C131.507 15.9698 131.198 15.24 130.58 14.6906C129.979 14.1412 129.069 13.8665 127.85 13.8665H123.909V19.9444ZM137.117 30.0916V17.3175H139.28V30.0916H137.117ZM138.198 14.5618C137.77 14.5618 137.409 14.4245 137.117 14.1498C136.843 13.8579 136.705 13.4887 136.705 13.0423C136.705 12.6303 136.843 12.2869 137.117 12.0122C137.409 11.7374 137.77 11.6001 138.198 11.6001C138.61 11.6001 138.963 11.7374 139.254 12.0122C139.547 12.2869 139.692 12.6388 139.692 13.0681C139.692 13.4802 139.547 13.8322 139.254 14.124C138.963 14.4159 138.61 14.5618 138.198 14.5618ZM148.565 30.4006C147.363 30.4006 146.282 30.1259 145.32 29.5765C144.358 29.0271 143.595 28.2545 143.028 27.2586C142.478 26.2457 142.204 25.061 142.204 23.7046C142.204 22.3481 142.487 21.1721 143.054 20.1762C143.621 19.1633 144.384 18.382 145.346 17.8326C146.325 17.2832 147.415 17.0085 148.617 17.0085C149.818 17.0085 150.9 17.2832 151.862 17.8326C152.823 18.382 153.578 19.1633 154.128 20.1762C154.695 21.1721 154.978 22.3481 154.978 23.7046C154.978 25.061 154.695 26.2457 154.128 27.2586C153.562 28.2545 152.789 29.0271 151.81 29.5765C150.848 30.1259 149.767 30.4006 148.565 30.4006ZM148.565 28.5978C149.303 28.5978 149.99 28.4176 150.626 28.057C151.26 27.6792 151.775 27.1299 152.171 26.4087C152.566 25.6876 152.763 24.7862 152.763 23.7046C152.763 22.6057 152.566 21.6957 152.171 20.9746C151.793 20.2535 151.286 19.7127 150.651 19.3521C150.016 18.9915 149.338 18.8113 148.617 18.8113C147.896 18.8113 147.209 18.9915 146.557 19.3521C145.921 19.7127 145.406 20.2535 145.011 20.9746C144.616 21.6957 144.419 22.6057 144.419 23.7046C144.419 24.7862 144.616 25.6876 145.011 26.4087C145.406 27.1299 145.913 27.6792 146.531 28.057C147.165 28.4176 147.844 28.5978 148.565 28.5978ZM157.683 30.0916V17.3175H159.615L159.769 19.5324H159.795C160.225 18.7598 160.817 18.1502 161.572 17.7038C162.328 17.2403 163.204 17.0085 164.199 17.0085C165.195 17.0085 166.063 17.2145 166.8 17.6266C167.539 18.0214 168.114 18.6395 168.526 19.4809C168.938 20.305 169.144 21.3524 169.144 22.6229V30.0916H166.98V22.8547C166.98 21.5326 166.697 20.5368 166.131 19.8672C165.564 19.1976 164.749 18.8628 163.684 18.8628C162.946 18.8628 162.285 19.043 161.701 19.4036C161.134 19.7642 160.68 20.2878 160.336 20.9746C160.01 21.6442 159.847 22.4769 159.847 23.4728V30.0916H157.683ZM177.839 30.4006C176.619 30.4006 175.537 30.1259 174.594 29.5765C173.649 29.0099 172.902 28.2287 172.353 27.2329C171.82 26.2199 171.555 25.0438 171.555 23.7046C171.555 22.3481 171.82 21.1721 172.353 20.1762C172.885 19.1804 173.623 18.4077 174.568 17.8584C175.529 17.2918 176.636 17.0085 177.89 17.0085C179.143 17.0085 180.216 17.2918 181.109 17.8584C182.002 18.4077 182.689 19.1375 183.17 20.0475C183.65 20.9403 183.891 21.919 183.891 22.9834V23.55C183.891 23.7389 183.882 23.9535 183.865 24.1939H173.177V22.5199H181.753C181.702 21.3524 181.306 20.4423 180.569 19.7899C179.847 19.1375 178.937 18.8113 177.839 18.8113C177.1 18.8113 176.413 18.9743 175.778 19.3006C175.143 19.6268 174.628 20.1075 174.233 20.7428C173.855 21.3609 173.666 22.1507 173.666 23.1122V23.8333C173.666 24.8807 173.863 25.7563 174.259 26.4602C174.653 27.1642 175.168 27.6964 175.804 28.057C176.456 28.4004 177.134 28.5721 177.839 28.5721C178.731 28.5721 179.478 28.3661 180.079 27.954C180.68 27.5419 181.118 26.9839 181.393 26.28H183.53C183.307 27.0698 182.938 27.7737 182.423 28.3918C181.908 29.0099 181.264 29.4992 180.491 29.8598C179.735 30.2204 178.851 30.4006 177.839 30.4006ZM191.051 30.0916C190.278 30.0916 189.608 29.9714 189.042 29.731C188.475 29.4907 188.037 29.0872 187.728 28.5206C187.437 27.9368 187.29 27.1556 187.29 26.177V19.0688H185.076V17.3175H187.29L187.574 14.2528H189.454V17.3175H193.214V19.0688H189.454V26.177C189.454 27.0011 189.617 27.5591 189.943 27.851C190.27 28.1428 190.844 28.2888 191.669 28.2888H193.008V30.0916H191.051ZM198.161 30.0916L194.478 17.3175H196.641L199.551 28.2373L199.165 28.2115L202.307 17.3175H204.831L207.999 28.2115L207.612 28.2373L210.471 17.3175H212.66L208.977 30.0916H206.659L203.363 18.7855H203.775L200.478 30.0916H198.161ZM220.144 30.4006C218.941 30.4006 217.86 30.1259 216.898 29.5765C215.937 29.0271 215.173 28.2545 214.606 27.2586C214.057 26.2457 213.782 25.061 213.782 23.7046C213.782 22.3481 214.066 21.1721 214.632 20.1762C215.199 19.1633 215.963 18.382 216.924 17.8326C217.903 17.2832 218.993 17.0085 220.195 17.0085C221.397 17.0085 222.479 17.2832 223.44 17.8326C224.401 18.382 225.157 19.1633 225.706 20.1762C226.273 21.1721 226.556 22.3481 226.556 23.7046C226.556 25.061 226.273 26.2457 225.706 27.2586C225.14 28.2545 224.367 29.0271 223.389 29.5765C222.427 30.1259 221.346 30.4006 220.144 30.4006ZM220.144 28.5978C220.882 28.5978 221.568 28.4176 222.204 28.057C222.839 27.6792 223.355 27.1299 223.749 26.4087C224.144 25.6876 224.341 24.7862 224.341 23.7046C224.341 22.6057 224.144 21.6957 223.749 20.9746C223.371 20.2535 222.865 19.7127 222.23 19.3521C221.594 18.9915 220.916 18.8113 220.195 18.8113C219.474 18.8113 218.787 18.9915 218.135 19.3521C217.499 19.7127 216.984 20.2535 216.589 20.9746C216.195 21.6957 215.997 22.6057 215.997 23.7046C215.997 24.7862 216.195 25.6876 216.589 26.4087C216.984 27.1299 217.491 27.6792 218.109 28.057C218.745 28.4176 219.422 28.5978 220.144 28.5978ZM229.262 30.0916V17.3175H231.194L231.4 19.8672H231.426C231.735 19.1976 232.104 18.6567 232.533 18.2447C232.979 17.8154 233.503 17.5064 234.103 17.3175C234.705 17.1115 235.4 17.0085 236.19 17.0085V19.2748H235.598C234.996 19.2748 234.439 19.3521 233.924 19.5066C233.425 19.6611 232.987 19.9015 232.61 20.2277C232.232 20.554 231.941 21.0004 231.735 21.567C231.529 22.1163 231.426 22.7946 231.426 23.6015V30.0916H229.262ZM246.326 30.0916L240.12 23.0607L245.708 17.3175H248.361L241.948 23.8333L241.974 22.2881L249.082 30.0916H246.326ZM238.317 30.0916V11.6774H240.48V30.0916H238.317ZM255.106 30.4006C254.093 30.4006 253.182 30.2289 252.376 29.8855C251.569 29.525 250.916 29.0271 250.418 28.3918C249.937 27.7394 249.638 26.9753 249.517 26.0997H251.732C251.835 26.5461 252.023 26.9581 252.299 27.3359C252.574 27.7136 252.942 28.0227 253.406 28.263C253.887 28.4863 254.462 28.5978 255.131 28.5978C255.75 28.5978 256.256 28.512 256.651 28.3403C257.046 28.1515 257.338 27.911 257.527 27.6192C257.715 27.3101 257.81 26.9839 257.81 26.6405C257.81 26.1426 257.681 25.7649 257.424 25.5073C257.184 25.2326 256.814 25.018 256.316 24.8635C255.835 24.6918 255.26 24.5287 254.591 24.3742C254.076 24.2539 253.552 24.1081 253.02 23.9363C252.487 23.7646 251.998 23.55 251.552 23.2925C251.122 23.0177 250.771 22.6829 250.496 22.2881C250.238 21.876 250.109 21.3781 250.109 20.7943C250.109 20.056 250.298 19.4036 250.676 18.837C251.054 18.2704 251.586 17.824 252.273 17.4978C252.976 17.1715 253.801 17.0085 254.745 17.0085C256.102 17.0085 257.209 17.3433 258.067 18.0129C258.943 18.6825 259.45 19.6526 259.587 20.9231H257.449C257.38 20.2535 257.106 19.7384 256.625 19.3779C256.162 19.0001 255.526 18.8113 254.719 18.8113C253.929 18.8113 253.329 18.9743 252.917 19.3006C252.505 19.6268 252.299 20.056 252.299 20.5883C252.299 20.9145 252.41 21.1978 252.633 21.4382C252.873 21.6785 253.217 21.8846 253.663 22.0563C254.127 22.228 254.676 22.3911 255.312 22.5456C256.118 22.7344 256.874 22.9577 257.578 23.2152C258.282 23.4728 258.858 23.8505 259.304 24.3484C259.767 24.8292 259.999 25.5159 259.999 26.4087C260.016 27.1986 259.819 27.8939 259.407 28.4948C259.012 29.0957 258.445 29.5679 257.707 29.9113C256.986 30.2376 256.118 30.4006 255.106 30.4006Z" fill="#666666"/>
</g>
<defs>
<clipPath id="clip0_4426_285">
<rect width="260" height="42" fill="white"/>
</clipPath>
</defs>
</svg>
